<?xml version="1.0" encoding="utf-8"?><svg version="1.1" id="Layer_1" xmlns="http://www.w3.org/2000/svg" xmlns:xlink="http://www.w3.org/1999/xlink" x="0px" y="0px" viewBox="0 0 70.17 122.88" style="enable-background:new 0 0 70.17 122.88" xml:space="preserve"><g><path d="M12.46,0h45.25c3.43,0,6.56,1.4,8.81,3.65c2.25,2.25,3.65,5.38,3.65,8.81v97.96c0,3.43-1.4,6.56-3.65,8.81 c-2.25,2.25-5.38,3.65-8.81,3.65H12.46c-3.43,0-6.56-1.4-8.81-3.65C1.4,116.98,0,113.85,0,110.42V12.46C0,9.03,1.4,5.9,3.65,3.65 C5.9,1.4,9.03,0,12.46,0L12.46,0z M37.21,40.16l-3.29,16.73l-3.34-5.03c-7.19,2.89-11.22,7.64-11.83,14.97 c-5.91-10.32-2.32-19.58,5.16-25l-3.41-5.13L37.21,40.16L37.21,40.16L37.21,40.16L37.21,40.16L37.21,40.16L37.21,40.16z M32.96,79.47l3.29-16.73l3.34,5.03c7.19-2.89,11.22-7.64,11.82-14.97c5.91,10.32,2.32,19.58-5.16,25l3.41,5.13L32.96,79.47 L32.96,79.47L32.96,79.47L32.96,79.47L32.96,79.47L32.96,79.47z M28.38,113c-0.81,0-1.51-0.66-1.51-1.51 c0-0.81,0.66-1.51,1.51-1.51h13.71c0.81,0,1.51,0.66,1.51,1.51c0,0.81-0.66,1.51-1.51,1.51H28.38L28.38,113z M27.09,7.15 c1.33,0,2.4,1.07,2.4,2.4c0,1.33-1.07,2.4-2.4,2.4s-2.4-1.07-2.4-2.4C24.69,8.22,25.76,7.15,27.09,7.15L27.09,7.15z M35.09,7.15 c1.33,0,2.4,1.07,2.4,2.4c0,1.33-1.07,2.4-2.4,2.4c-1.33,0-2.4-1.07-2.4-2.4C32.69,8.22,33.76,7.15,35.09,7.15L35.09,7.15z M43.09,7.15c1.33,0,2.4,1.07,2.4,2.4c0,1.33-1.07,2.4-2.4,2.4c-1.33,0-2.4-1.07-2.4-2.4C40.69,8.22,41.76,7.15,43.09,7.15 L43.09,7.15z M2.99,99.28h64.2V19.21H2.99V99.28L2.99,99.28L2.99,99.28z M67.18,102.27H2.99v8.11c0,2.62,1.07,4.98,2.8,6.67 c1.73,1.73,4.09,2.8,6.67,2.8h45.25c2.62,0,4.98-1.07,6.67-2.8c1.73-1.73,2.8-4.09,2.8-6.67V102.27L67.18,102.27L67.18,102.27z M2.99,16.18h64.2v-3.72c0-2.62-1.07-4.98-2.8-6.67c-1.73-1.73-4.09-2.8-6.67-2.8H12.46c-2.62,0-4.98,1.07-6.67,2.8 c-1.73,1.73-2.8,4.09-2.8,6.67V16.18L2.99,16.18L2.99,16.18z"/></g></svg>